<?xml version="1.0" encoding="UTF-8" standalone="no"?>
<!-- Created with Inkscape (http://www.inkscape.org/) -->

<svg
   width="250"
   height="250"
   viewBox="0 0 66.145834 66.145835"
   version="1.1"
   id="svg5"
   xml:space="preserve"
   xmlns:xlink="http://www.w3.org/1999/xlink"
   xmlns="http://www.w3.org/2000/svg"
   xmlns:svg="http://www.w3.org/2000/svg"
   xmlns:rdf="http://www.w3.org/1999/02/22-rdf-syntax-ns#"
   xmlns:cc="http://creativecommons.org/ns#"
   xmlns:dc="http://purl.org/dc/elements/1.1/"><title
     id="title17151">Sangsad Bangladesh Television - সংসদ বাংলাদেশ টেলিভিশন</title><defs
     id="defs2"><linearGradient
       id="linearGradient12677"><stop
         style="stop-color:#787878;stop-opacity:1;"
         offset="0"
         id="stop12673" /><stop
         style="stop-color:#ebebeb;stop-opacity:1;"
         offset="1"
         id="stop12675" /></linearGradient><linearGradient
       id="linearGradient6471"><stop
         style="stop-color:#666666;stop-opacity:1;"
         offset="0"
         id="stop6467" /><stop
         style="stop-color:#ebebeb;stop-opacity:1;"
         offset="1"
         id="stop6469" /></linearGradient><linearGradient
       id="linearGradient5999"><stop
         style="stop-color:#5c5c5c;stop-opacity:1;"
         offset="0"
         id="stop5995" /><stop
         style="stop-color:#ebebeb;stop-opacity:1;"
         offset="1"
         id="stop5997" /></linearGradient><linearGradient
       id="linearGradient5585"><stop
         style="stop-color:#787878;stop-opacity:1;"
         offset="0"
         id="stop5581" /><stop
         style="stop-color:#ebebeb;stop-opacity:1;"
         offset="1"
         id="stop5583" /></linearGradient><linearGradient
       id="linearGradient3572"><stop
         style="stop-color:#454545;stop-opacity:1;"
         offset="0"
         id="stop3568" /><stop
         style="stop-color:#ebebeb;stop-opacity:1;"
         offset="1"
         id="stop3570" /></linearGradient><linearGradient
       id="linearGradient2045"><stop
         style="stop-color:#ebebeb;stop-opacity:1;"
         offset="0"
         id="stop2041" /><stop
         style="stop-color:#626262;stop-opacity:1;"
         offset="1"
         id="stop2043" /></linearGradient><linearGradient
       id="linearGradient1274"><stop
         style="stop-color:#ebebeb;stop-opacity:1;"
         offset="0"
         id="stop1270" /><stop
         style="stop-color:#4f4f4f;stop-opacity:1;"
         offset="1"
         id="stop1272" /></linearGradient><linearGradient
       id="linearGradient1114"><stop
         style="stop-color:#5c5c5c;stop-opacity:1;"
         offset="0"
         id="stop1110" /><stop
         style="stop-color:#ebebeb;stop-opacity:1;"
         offset="1"
         id="stop1112" /></linearGradient><linearGradient
       xlink:href="#linearGradient1114"
       id="linearGradient1116"
       x1="102.06853"
       y1="81.867012"
       x2="109.18868"
       y2="81.867012"
       gradientUnits="userSpaceOnUse" /><linearGradient
       xlink:href="#linearGradient12677"
       id="linearGradient1247"
       gradientUnits="userSpaceOnUse"
       x1="103.03867"
       y1="81.867012"
       x2="107.7235"
       y2="81.867012"
       gradientTransform="matrix(-1,0,0,1,218.37736,0)" /><linearGradient
       xlink:href="#linearGradient1274"
       id="linearGradient1276"
       x1="117.42228"
       y1="84.446899"
       x2="125.48463"
       y2="84.446899"
       gradientUnits="userSpaceOnUse" /><linearGradient
       xlink:href="#linearGradient2045"
       id="linearGradient2047"
       x1="126.7058"
       y1="85.59343"
       x2="135.07802"
       y2="85.59343"
       gradientUnits="userSpaceOnUse"
       gradientTransform="matrix(1.033578,0,0,1,-4.5356457,0)" /><linearGradient
       xlink:href="#linearGradient3572"
       id="linearGradient3167"
       gradientUnits="userSpaceOnUse"
       x1="103.03867"
       y1="81.867012"
       x2="107.7235"
       y2="81.867012" /><linearGradient
       xlink:href="#linearGradient5999"
       id="linearGradient3169"
       gradientUnits="userSpaceOnUse"
       gradientTransform="matrix(-1,0,0,1,218.37736,0)"
       x1="98.675735"
       y1="81.867012"
       x2="107.7235"
       y2="81.867012" /><linearGradient
       xlink:href="#linearGradient3572"
       id="linearGradient6204"
       gradientUnits="userSpaceOnUse"
       x1="103.03867"
       y1="81.867012"
       x2="107.7235"
       y2="81.867012" /><linearGradient
       xlink:href="#linearGradient5999"
       id="linearGradient6206"
       gradientUnits="userSpaceOnUse"
       gradientTransform="matrix(-1,0,0,1,218.37736,0)"
       x1="98.675735"
       y1="81.867012"
       x2="107.7235"
       y2="81.867012" /><linearGradient
       xlink:href="#linearGradient2045"
       id="linearGradient6208"
       gradientUnits="userSpaceOnUse"
       gradientTransform="matrix(1.033578,0,0,1,-4.5356457,0)"
       x1="126.7058"
       y1="85.59343"
       x2="135.07802"
       y2="85.59343" /><linearGradient
       xlink:href="#linearGradient1274"
       id="linearGradient6210"
       gradientUnits="userSpaceOnUse"
       x1="117.42228"
       y1="84.446899"
       x2="125.48463"
       y2="84.446899" /><linearGradient
       xlink:href="#linearGradient1114"
       id="linearGradient6212"
       gradientUnits="userSpaceOnUse"
       x1="102.06853"
       y1="81.867012"
       x2="109.18868"
       y2="81.867012" /><linearGradient
       xlink:href="#linearGradient5585"
       id="linearGradient6214"
       gradientUnits="userSpaceOnUse"
       gradientTransform="matrix(-1,0,0,1,218.37736,0)"
       x1="103.03867"
       y1="81.867012"
       x2="107.7235"
       y2="81.867012" /><linearGradient
       xlink:href="#linearGradient6471"
       id="linearGradient6473"
       x1="88.84729"
       y1="70.388206"
       x2="96.439072"
       y2="70.388206"
       gradientUnits="userSpaceOnUse" /><linearGradient
       xlink:href="#linearGradient6471"
       id="linearGradient6477"
       gradientUnits="userSpaceOnUse"
       x1="88.84729"
       y1="70.388206"
       x2="96.439072"
       y2="70.388206"
       gradientTransform="matrix(-1,0,0,1,204.58596,0)" /></defs><g
     id="layer1"
     transform="translate(-46.905918,-8.2895649)"><g
       id="g17019"
       transform="matrix(0.59234905,0,0,0.59234905,19.385826,3.6438316)"><g
         id="g16938"><g
           id="g12558"
           style="opacity:1"><path
             id="path9434"
             style="fill:#05601c;fill-opacity:1;fill-rule:evenodd;stroke-width:0.312919;stop-color:#000000"
             d="M 157.67957,63.676396 A 55.386832,55.386832 0 0 1 102.29274,119.06322 55.386832,55.386832 0 0 1 46.905918,63.676396 55.386832,55.386832 0 0 1 102.29274,8.2895649 55.386832,55.386832 0 0 1 157.67957,63.676396 Z" /><path
             id="circle9436"
             style="fill:#fa040d;fill-opacity:1;fill-rule:evenodd;stroke-width:0.171627;stop-color:#000000"
             d="M 132.67073,63.676393 A 30.377989,30.377989 0 0 1 102.29274,94.054381 30.377989,30.377989 0 0 1 71.914759,63.676393 30.377989,30.377989 0 0 1 102.29274,33.298404 30.377989,30.377989 0 0 1 132.67073,63.676393 Z" /></g><path
           id="path14450"
           style="opacity:1;fill:#ffffff;fill-opacity:1;fill-rule:evenodd;stroke:none;stroke-width:0.132292;stroke-dasharray:none;stroke-opacity:1;stop-color:#000000;stop-opacity:1"
           d="m 105.59685,13.491238 -0.0305,0.465796 c -0.0139,0.212669 -0.0245,0.471388 -0.0296,0.780677 6.7e-4,4.4e-5 0.001,8.9e-5 0.002,1.33e-4 l -8e-5,0.0012 c -0.004,0.297637 -0.006,0.646288 -0.004,1.054157 l -2.3e-4,0.0035 c 5.8e-4,0.0012 10e-4,0.0024 0.002,0.0036 0.016,0.408288 0.0178,0.76024 0.0117,1.058268 -0.12485,-0.424373 -0.45402,-0.783937 -0.85382,-1.018669 -0.29792,-0.17493 -0.63151,-0.278278 -0.93876,-0.287535 -0.48765,-0.01469 -0.97542,-0.02203 -1.46312,-0.02202 -1.16136,-1.9e-5 -2.323115,0.0416 -3.482587,0.125095 h -10e-7 c -1.113574,0.0802 -2.224534,0.199077 -3.330468,0.35655 h -10e-7 c -0.849483,0.120965 -1.695754,0.264691 -2.537724,0.431035 -0.72111,0.142469 -1.438902,0.301506 -2.1527,0.476961 0.680707,0.334354 1.346712,0.683201 1.997471,1.045673 0.146024,-0.03031 0.292193,-0.05992 0.438504,-0.08883 0.816317,-0.161277 1.636845,-0.30063 2.460493,-0.417917 1.072292,-0.152686 2.14957,-0.267955 3.229425,-0.34573 0.64905,-0.04674 1.298898,-0.07995 1.949028,-0.09967 l 0.012,0.394915 c -0.64282,0.210519 -1.272638,0.456758 -1.886575,0.738135 -1.038639,0.476032 -2.029985,1.051943 -2.960512,1.723476 -0.622934,0.449557 -1.217918,0.941495 -1.781058,1.474132 -0.05572,0.05277 -0.111218,0.105643 -0.16651,0.158626 0.678457,0.605758 1.331509,1.227273 1.958542,1.862994 0.158676,-0.02452 0.319468,-0.03701 0.481372,-0.03829 1.014743,-0.008 2.047288,0.420842 2.917935,1.063348 1.005966,0.74236 1.760476,1.738145 2.142036,2.63532 0.24291,0.301285 0.48004,0.604953 0.71135,0.910829 0.0631,0.08346 0.12579,0.167086 0.18803,0.250872 l 0.0585,-11.19577 c 0.13863,7.24e-4 0.27727,0.0021 0.4159,0.004 0.60211,0.0085 1.21129,0.209147 1.65391,0.561639 0.22033,0.175455 0.39797,0.38735 0.51381,0.629909 0.11131,0.233059 0.15499,0.491293 0.13586,0.781901 l -0.50735,7.70625 c 0.41125,0.520655 0.80428,1.048081 1.17878,1.581328 l 1.12391,-11.024518 c 0.13673,0.01394 0.27341,0.02848 0.41002,0.04363 0.73265,0.08123 1.46343,0.179829 2.19156,0.29573 -0.47969,-0.569659 -0.97839,-1.131996 -1.49581,-1.686027 -0.17812,-0.02177 -0.35635,-0.04254 -0.53469,-0.06231 -0.17548,-0.01945 -0.35105,-0.03794 -0.5267,-0.05547 -0.26555,-0.302984 -0.47504,-0.770921 -0.55803,-1.460159 -0.003,-0.02634 -0.006,-0.05267 -0.009,-0.07901 -0.30691,-0.248776 -0.61841,-0.494708 -0.93445,-0.737668 z m 24.91945,8.557498 -0.26204,0.386299 c -0.11953,0.176203 -0.25826,0.395388 -0.41896,0.659472 l -6.5e-4,9.56e-4 c -0.15435,0.254491 -0.33224,0.554416 -0.5366,0.907373 -1.4e-4,0.0013 -2.7e-4,0.0026 -4.1e-4,0.0039 l -0.002,0.0029 c -0.19257,0.359697 -0.36859,0.663555 -0.52456,0.917247 0.099,-0.880362 -0.26867,-1.623216 -1.09127,-2.146824 -0.1,-0.0622 -0.20017,-0.124043 -0.3006,-0.185517 -1.14649,-0.701789 -2.32227,-1.355646 -3.52375,-1.959403 -0.92401,-0.464313 -1.86298,-0.898858 -2.81522,-1.302768 -0.92418,-0.391998 -1.86067,-0.755044 -2.80785,-1.088437 0,0 0,-1e-6 0,-1e-6 -1.0903,-0.383763 -2.19441,-0.728089 -3.30977,-1.032118 -0.20007,-0.05453 -0.40048,-0.107766 -0.60123,-0.159696 0.15964,0.211394 0.31687,0.423557 0.4717,0.636445 0.30273,0.416268 0.59622,0.835296 0.88044,1.256754 0.69713,0.208534 1.38933,0.43342 2.0759,0.67443 0.91866,0.322481 1.82705,0.673749 2.72355,1.053119 0.92371,0.390894 1.83466,0.811551 2.73112,1.261118 v 0 c 0.49287,0.247174 0.98131,0.503057 1.46504,0.767488 l -0.89661,1.640208 c 0.0843,-0.66354 -0.25651,-1.340521 -0.88779,-1.770884 0,0 0,0 0,0 -0.0924,-0.06296 -0.19066,-0.120391 -0.29432,-0.171421 -0.38476,-0.189402 -0.83095,-0.251166 -1.2457,-0.05719 -0.32104,0.150152 -0.45624,0.299666 -0.63088,0.482878 -0.16542,-0.44501 -0.38151,-0.843661 -0.6512,-1.182531 -0.35041,-0.440301 -0.79115,-0.778857 -1.32165,-0.981869 -0.43618,-0.166919 -0.87899,-0.212754 -1.30675,-0.143021 0,0 0,0 0,0 -0.37694,0.06145 -0.74123,0.212375 -1.08171,0.44812 l -3.6e-4,0.0011 c -4.5e-4,-1.48e-4 -9e-4,-2.96e-4 -0.001,-4.44e-4 -0.64441,0.45573 -1.07066,1.060606 -1.29421,1.77741 -0.13857,0.444321 -0.18766,0.882651 -0.14974,1.30966 5.5e-4,1.74e-4 0.001,3.47e-4 0.002,5.21e-4 l -3.5e-4,0.0011 c 0.0416,0.411681 0.1542,0.796928 0.3349,1.151101 4e-4,5.43e-4 8.1e-4,0.0011 0.001,0.0016 3e-5,0.0012 7e-5,0.0025 1e-4,0.0037 0.10113,0.187388 0.22014,0.364175 0.35592,0.530564 0.12326,0.151058 0.26041,0.293631 0.41075,0.427981 9.6e-4,7.61e-4 0.002,0.0015 0.003,0.0023 7.8e-4,6.95e-4 0.002,0.0014 0.002,0.0021 0.32268,0.27208 0.6986,0.491133 1.12877,0.664751 0.002,9.98e-4 0.005,0.002 0.007,0.003 0.002,7.94e-4 0.004,0.0016 0.006,0.0024 0.22334,0.07302 0.43712,0.122529 0.64117,0.145969 0,0 0,0 0,0 0.29351,0.03372 0.56698,0.0135 0.81865,-0.06847 0.4175,-0.135987 0.74895,-0.421683 0.95147,-0.827437 l 0.001,-0.0032 0.001,-0.0032 c 0.21483,-0.466769 0.27127,-0.91367 0.11908,-1.314818 -0.11123,-0.293164 -0.32925,-0.547142 -0.6336,-0.756954 0,0 0,0 0,0 -0.11208,-0.07727 -0.23578,-0.148469 -0.36995,-0.213308 -0.002,-0.0012 -0.004,-0.0025 -0.006,-0.0037 -0.002,-8.76e-4 -0.004,-0.0018 -0.006,-0.0026 -0.74091,-0.304679 -1.59499,0.0414 -1.85768,0.710876 -0.0616,0.157211 -0.0608,0.365286 0.007,0.519813 -0.20134,-0.08888 -0.40587,-0.252037 -0.50004,-0.452079 -0.0939,-0.199531 -0.13002,-0.396608 -0.096,-0.624222 0,0 0,0 0,0 0,0 0,0 0,0 0.013,-0.08698 0.0362,-0.178441 0.0705,-0.276078 0.0325,-0.09288 0.072,-0.180409 0.11876,-0.262981 0,0 0,0 0,0 0,0 0,0 0,0 0.0618,-0.109069 0.13662,-0.209486 0.22553,-0.302013 6.8e-4,-1.65e-4 0.001,-3.31e-4 0.002,-4.97e-4 0.1772,-0.173701 0.36916,-0.299966 0.57663,-0.385101 4.1e-4,-1.65e-4 9e-5,-0.0012 4e-4,-0.0011 0.2216,-0.08099 0.45405,-0.122055 0.70024,-0.121906 0.002,2.35e-4 0.003,4.7e-4 0.005,7.05e-4 0.002,-4.85e-4 0.004,-9.7e-4 0.006,-0.0015 0.24699,-0.0099 0.4826,0.03188 0.7165,0.125398 0.2944,0.117708 0.54738,0.269185 0.7609,0.45514 0.19456,0.169441 0.35652,0.367624 0.48778,0.595628 0,0 10e-4,0.0018 10e-4,0.0018 0.28737,0.484541 0.35697,0.959567 0.23169,1.455809 -0.0214,0.08491 -0.0429,0.169784 -0.0645,0.254625 0.31614,0.02668 0.63304,0.0572 0.95063,0.09161 0.0135,-0.06086 0.027,-0.12175 0.0404,-0.182656 0.0578,-0.262573 0.12057,-0.457721 0.17853,-0.576457 0.14287,-0.292695 0.25832,-0.4342 0.45993,-0.512664 0.0974,-0.03789 0.20063,-0.04726 0.32505,-0.0182 0.0747,0.01744 0.15708,0.04878 0.25023,0.0962 0.6452,0.328472 0.85946,1.03775 0.55022,1.604766 l -2.86389,5.251249 c 0.18568,0.631366 0.35178,1.262053 0.49846,1.891011 l 5.70561,-9.582952 c 0.16418,0.09775 0.31355,0.197912 0.44881,0.299496 1.30144,0.977439 1.28543,2.042274 0.84236,2.750532 l -4.33846,6.389163 c 0.0535,0.38715 0.10033,0.773145 0.14063,1.157786 0.0281,0.268045 0.053,0.535441 0.0747,0.802122 l 6.54942,-8.939005 c 0.69041,0.505851 1.36692,1.030598 2.02858,1.57352 0.57074,0.468322 1.13038,0.950119 1.67834,1.444895 -1.66699,0.14067 -3.02612,0.646004 -4.05517,1.451738 0,0 0,0 0,0 -0.34166,0.267516 -0.64754,0.568344 -0.91887,0.901255 -0.33089,0.405993 -0.61194,0.823838 -0.84581,1.249366 0,0 -1e-5,0 -1e-5,0 -0.3544,0.644816 -0.60178,1.309493 -0.75155,1.985059 -0.22747,0.962231 -0.17142,1.798308 0.16686,2.486037 0,0 0,0 0,0 0.14188,0.288442 0.33388,0.552495 0.57778,0.793259 0.17515,0.172908 0.37674,0.307261 0.60154,0.402085 0.0693,0.03068 0.13927,0.05767 0.20976,0.08088 0.16325,0.05374 0.32965,0.08717 0.49908,0.09889 0,0 0.005,-3.7e-5 0.005,-3.7e-5 0,0 0.005,-3.7e-5 0.005,-3.7e-5 0.2505,0.0073 0.49908,-0.02978 0.74069,-0.111557 0.24653,-0.08342 0.4753,-0.217902 0.67771,-0.402598 0.3472,-0.316799 0.55767,-0.695046 0.59442,-1.113786 0.0297,-0.278191 -0.0147,-0.54262 -0.13124,-0.773724 -0.0587,-0.116438 -0.13567,-0.224217 -0.23039,-0.320622 -0.25989,-0.264515 -0.60293,-0.417893 -0.99102,-0.449174 0,0 -0.002,-2.35e-4 -0.002,-2.35e-4 -6.4e-4,-7.9e-5 -0.001,-1.57e-4 -0.002,-2.35e-4 -0.38981,-0.02242 -0.75048,0.108018 -1.00104,0.390106 -0.23889,0.268974 -0.37298,0.498756 -0.36956,0.803893 -0.11079,-0.113583 -0.17398,-0.268682 -0.20751,-0.439575 0,0 0,0 0,0 -0.0678,-0.345509 -0.0148,-0.764199 0.0242,-1.015682 0.0999,-0.644857 0.37964,-1.229191 0.83099,-1.761044 2.9e-4,-3.46e-4 4.7e-4,-5.22e-4 7.6e-4,-8.68e-4 0.53961,-0.613347 1.09432,-1.102686 1.67128,-1.462504 0.5792,-0.361236 1.18774,-0.609049 1.83202,-0.738313 0.11618,-0.02126 0.23261,-0.03842 0.34928,-0.05143 0.58115,-0.06483 1.1685,-0.02684 1.75845,0.117685 0.34754,0.08515 0.69953,0.212061 1.05425,0.382367 0.35795,0.171865 0.71886,0.388018 1.08006,0.649839 0.097,0.106057 0.19349,0.21256 0.2895,0.319507 l -4.43536,3.98161 c -0.0181,0.302955 -0.0398,0.604507 -0.0649,0.904582 -0.0425,0.506983 -0.0948,1.009751 -0.1569,1.507952 0.10058,-0.02669 0.20131,-0.0531 0.30218,-0.07921 0.79557,-0.194325 1.58166,-0.246279 2.3513,-0.162041 1.07168,0.117292 2.10288,0.498246 3.05403,1.110523 -1.83581,0.656675 -3.22035,1.863439 -4.51015,3.100361 -0.30949,0.296811 -0.62405,0.606102 -0.935,0.910043 -0.0249,0.02385 -0.0498,0.04768 -0.0747,0.07149 0.0368,0.413845 0.0656,0.825747 0.0866,1.235387 0.10847,-0.09658 0.21676,-0.193415 0.32486,-0.290497 2.10748,-2.097979 4.48582,-3.17941 7.26146,-3.250684 0.0552,-0.0014 0.11053,-0.0024 0.16594,-0.003 0.0617,-4.11e-4 0.12341,-7.09e-4 0.18515,-8.94e-4 0.005,-0.06983 0.0103,-0.139728 0.0152,-0.209708 0.0557,-0.799496 0.0883,-1.608984 0.097,-2.42717 -0.0361,-0.02841 -0.0721,-0.05675 -0.10824,-0.08502 -0.14646,-0.111512 -0.29504,-0.219614 -0.44557,-0.3242 0,0 0,0 0,-10e-7 -0.92801,-0.644802 -1.92235,-1.150768 -2.93962,-1.501399 -0.70505,-0.243024 -1.41628,-0.409787 -2.12026,-0.498498 l 3.14146,-2.605537 c 0.39276,0.473553 0.77618,0.954886 1.14996,1.443664 v 0 c 0.61961,0.810213 1.21263,1.640754 1.77783,2.490014 v 0 c 0.5085,0.764046 0.9944,1.543126 1.45689,2.336008 0.38649,0.662597 0.75657,1.334722 1.10981,2.015617 6.2e-4,0.0012 0.001,0.0024 0.002,0.0036 2.1e-4,4e-4 4.1e-4,7.99e-4 6.2e-4,0.0012 0.16233,0.312987 0.20492,0.66167 0.13363,1.043977 -0.0508,0.272637 -0.15958,0.562396 -0.32407,0.869042 -0.15445,-0.141314 -0.30315,-0.288241 -0.48254,-0.398811 -0.0223,-0.01377 -0.0448,-0.02727 -0.0673,-0.04048 0,0 0,0 0,0 -0.25089,-0.147243 -0.51202,-0.259589 -0.78048,-0.336166 -0.001,1.41e-4 -0.002,2.81e-4 -0.004,4.22e-4 -0.002,-6.26e-4 -0.003,-0.0013 -0.005,-0.0019 -0.28743,-0.07059 -0.57551,-0.09474 -0.8629,-0.07635 -0.001,1.56e-4 -0.002,3.13e-4 -0.004,4.7e-4 l -0.003,0.0016 c -0.27555,0.02592 -0.53555,0.102653 -0.77476,0.228948 -0.37519,0.198089 -0.65585,0.511737 -0.83268,0.91187 -4.8e-4,0.0016 -9.5e-4,0.0032 -0.001,0.0048 -7.6e-4,0.0018 -0.002,0.0035 -0.002,0.0053 -0.11606,0.298327 -0.14083,0.607569 -0.075,0.905796 0.0262,0.118528 0.0667,0.235502 0.12161,0.349735 0.32719,0.680543 0.91708,1.032289 1.65235,1.147245 0.0407,0.0064 0.0818,0.01198 0.12326,0.01688 -0.19424,0.246767 -0.39519,0.486927 -0.47592,0.774785 -0.11726,0.418117 -0.0693,0.868264 0.0708,1.19888 0.0189,0.04454 0.0389,0.08745 0.06,0.128794 0,0 0,10e-7 0,10e-7 0.22496,0.441684 0.5713,0.70718 0.90664,0.857718 0.40278,0.175416 0.92839,0.217962 1.35884,0.0034 0.73733,-0.367424 1.20209,-1.36624 1.25613,-2.195135 0.003,-0.04678 0.005,-0.09285 0.005,-0.138052 0.0872,-0.0012 0.17156,0.013 0.2519,0.04068 0,0 0,0 0,0 0.29028,0.09999 0.52753,0.376202 0.6573,0.734105 0.12297,0.338465 0.0463,0.860743 -0.36319,1.521961 -0.42203,0.681483 -0.84973,1.04195 -1.18208,1.14349 -2.14189,0.625581 -4.28258,1.255198 -6.42205,1.888847 -0.0688,0.122157 -0.13819,0.243667 -0.20816,0.364526 -0.26821,0.463274 -0.545,0.91709 -0.82986,1.361191 l 10.75931,-2.870763 c 0.20555,0.770367 0.39143,1.545764 0.55751,2.325245 0.35531,-0.657423 0.69687,-1.329909 1.02379,-2.016986 -0.005,-0.03053 -0.01,-0.06106 -0.015,-0.09159 -0.0509,-0.307005 -0.0188,-0.537752 0.0974,-0.748901 0.11589,-0.210584 0.3288,-0.403929 0.65818,-0.561117 0.0228,-0.01121 0.0457,-0.02242 0.0685,-0.03364 0.15476,-0.390081 0.30488,-0.784265 0.45019,-1.182473 0.0464,-0.127027 0.0922,-0.254457 0.13759,-0.382286 -1.37708,0.499825 -2.75623,0.993464 -4.1374,1.480903 0.61419,-0.746842 1.65167,-2.306201 1.2652,-3.358917 -0.0582,-0.158594 -0.12678,-0.308444 -0.20495,-0.449486 0,0 0,0 0,0 -0.41319,-0.74552 -1.09331,-1.241713 -1.94632,-1.502656 -0.25094,-0.07678 -0.51685,-0.133393 -0.79589,-0.170772 0.34603,-0.359194 0.67257,-0.751721 0.77751,-1.331995 0.068,-0.375861 0.0757,-0.747463 0.0223,-1.107027 -0.0509,-0.34294 -0.1573,-0.6744 -0.31934,-0.986832 -0.36519,-0.704142 -0.74782,-1.399182 -1.14749,-2.084357 -0.47701,-0.81778 -0.97814,-1.621286 -1.50259,-2.409288 -0.58292,-0.875895 -1.1945,-1.732436 -1.83351,-2.568014 -0.61416,-0.803103 -1.25351,-1.586672 -1.91686,-2.34936 -0.53738,-0.617846 -1.09047,-1.221957 -1.65862,-1.811634 -0.57572,-0.597545 -1.16679,-1.180172 -1.77251,-1.7472 -0.76711,-0.718104 -1.55755,-1.411058 -2.36981,-2.077561 -0.70925,-0.581965 -1.43502,-1.143667 -2.17625,-1.684294 -0.0635,-0.332165 -0.034,-0.74365 0.14041,-1.24298 0.0336,-0.09624 0.0726,-0.195806 0.11749,-0.298704 0.0107,-0.02428 0.0215,-0.04856 0.0322,-0.07285 -0.13897,-0.369409 -0.28336,-0.738703 -0.4332,-1.107747 z M 55.205303,53.635038 c 0.151166,-0.120529 0.302771,-0.239813 0.4548,-0.35785 0.377467,-0.291706 0.595374,-0.455782 0.972841,-0.747488 0.253525,-0.196707 0.426886,-0.336246 0.543376,-0.444971 0.287423,-0.261169 0.539161,-0.513174 0.754945,-0.762297 0.0015,-0.0011 0.003,-0.0023 0.0045,-0.0034 0.0012,-0.0028 0.0023,-0.0055 0.0035,-0.0083 0.207039,-0.266263 0.38684,-0.533191 0.535728,-0.802575 1.06e-4,-3.55e-4 2.13e-4,-7.09e-4 3.19e-4,-0.0011 2.13e-4,-7.09e-4 4.26e-4,-0.0014 6.39e-4,-0.0021 0.04509,-0.08513 0.08934,-0.167162 0.132639,-0.246057 0.181472,-0.330639 0.347261,-0.607798 0.490647,-0.827843 8.26e-4,-0.0013 0.0017,-0.0026 0.0025,-0.0038 8.26e-4,-0.0013 0.0017,-0.0026 0.0025,-0.0038 0.16028,-0.271759 0.334123,-0.461675 0.516727,-0.582941 0.0021,-0.0016 0.0042,-0.0032 0.0063,-0.0048 0.0021,-0.0016 0.0042,-0.0032 0.0063,-0.0048 0.170025,-0.130317 0.379562,-0.202993 0.64888,-0.210907 0.0024,7.7e-5 0.0047,1.54e-4 0.0071,2.31e-4 0.0018,-5.22e-4 0.0035,-0.001 0.0053,-0.0016 0.244967,-0.02148 0.60601,0.02074 1.032362,0.107092 0.267211,0.460692 0.50106,0.855844 0.671684,1.156513 -2.23e-4,6.52e-4 -4.46e-4,0.0013 -6.69e-4,0.002 0.178274,0.310669 0.317215,0.557348 0.418085,0.750144 0.09046,0.171465 0.140298,0.301637 0.151009,0.357452 0.01509,0.07825 0.0077,0.123335 0.0066,0.127078 -0.03065,0.09714 -0.08302,0.16867 -0.175354,0.236428 -0.02347,0.01492 -0.04752,0.02934 -0.07218,0.0432 -0.08809,0.04951 -0.183958,0.09191 -0.288881,0.124709 -9.81e-4,4.4e-4 -0.0025,3.11e-4 -0.0039,9.55e-4 -0.152182,0.04014 -0.30626,0.06745 -0.462393,0.08372 -7.24e-4,6.5e-5 -0.0011,7.55e-4 -0.0014,6.61e-4 -0.236872,0.0073 -0.192063,0.006 -0.428935,0.01335 -0.11562,0.0033 -0.231274,0.0068 -0.346962,0.01061 0.204081,0.458473 0.415442,0.910106 0.633763,1.354722 0.05473,-0.01434 0.109466,-0.02857 0.164201,-0.04271 0.257434,-0.06626 0.542875,-0.140096 0.842287,-0.216321 l 0.0011,3.06e-4 c 4.6e-4,-2.21e-4 9.2e-4,-4.42e-4 0.0014,-6.63e-4 0.301855,-0.08335 0.598698,-0.192253 0.889763,-0.325683 5.52e-4,-5.24e-4 0.0011,-10e-4 0.0017,-0.0016 0.0014,-6.25e-4 0.0028,-0.0013 0.0042,-0.0019 0.263944,-0.129631 0.507773,-0.284802 0.732973,-0.467195 0,0 0,0 0,0 0.01785,-0.01446 0.03558,-0.02909 0.0532,-0.04389 0.0017,-0.0015 0.0034,-0.003 0.005,-0.0045 0.0016,-0.0012 0.0032,-0.0024 0.0047,-0.0036 0.245095,-0.23084 0.423713,-0.518573 0.535686,-0.852403 0.04275,-0.127456 0.06636,-0.264174 0.07271,-0.410163 2.69e-4,-0.002 5.38e-4,-0.0039 8.08e-4,-0.0059 1.63e-4,-0.0016 3.27e-4,-0.0033 4.91e-4,-0.0049 -0.0026,-0.193461 -0.06395,-0.40176 -0.168177,-0.65037 -0.106372,-0.253718 -0.271369,-0.55273 -0.494555,-0.914133 l -0.0011,-4.12e-4 c -0.112462,-0.184484 -0.244463,-0.387572 -0.396287,-0.612222 -0.162238,-0.24006 -0.345295,-0.502085 -0.550883,-0.792168 0.0033,0.0047 0.0065,0.0093 0.0098,0.01398 -0.33165,-0.555105 -0.418957,-0.992927 -0.345818,-1.273474 4.2e-4,-9.6e-4 8.39e-4,-0.0019 0.0013,-0.0029 5.6e-4,-0.0013 0.0011,-0.0026 0.0017,-0.0038 0.07125,-0.312082 0.229216,-0.488123 0.555053,-0.5988 6.39e-4,-4.7e-4 0.0013,-9.39e-4 0.0019,-0.0014 6.4e-4,-4.69e-4 0.0013,-9.39e-4 0.0019,-0.0014 0.337731,-0.123194 0.813519,-0.14387 1.41849,-0.03395 0.342392,0.06221 0.704552,0.165044 1.087209,0.307194 0,0 0,0 0,0 0,0 0,0 0,0 0.290694,0.107987 0.592603,0.238429 0.906481,0.390672 l 0.281134,0.13636 c 0.09227,0.04476 0.212738,0.109536 0.359324,0.193527 l 0.0061,0.0029 0.0071,0.0034 c 0.138671,0.06718 0.320734,0.162716 0.545721,0.284652 0.03846,0.02094 0.07862,0.04269 0.120483,0.06524 0,0 10e-7,0 10e-7,0 0,0 0,0 0,0 0.194476,0.104777 0.425985,0.22716 0.695041,0.367604 0.02416,0.01233 0.04831,0.02466 0.07247,0.03698 0.01613,-0.0033 0.03225,-0.0066 0.04838,-0.01 0.0095,-0.002 0.01904,-0.0039 0.02856,-0.0058 0.24157,-0.04845 0.483326,-0.09386 0.724407,-0.137262 0.002,-6.6e-4 0.004,-0.0013 0.0059,-0.002 0.0027,-3.15e-4 0.0053,-6.3e-4 0.008,-9.45e-4 0.23269,-0.05826 0.47004,-0.111274 0.713387,-0.158848 0.18062,-0.03496 0.361092,-0.06845 0.541394,-0.100462 l -9.917144,-5.236504 c 0.331281,-0.627398 0.676912,-1.247201 1.036567,-1.858811 0.07555,-0.128472 0.151712,-0.256579 0.228489,-0.384314 -0.189221,0.06015 -0.37848,0.121751 -0.567757,0.184809 -0.51359,0.171112 -1.027294,0.352916 -1.540732,0.545475 -0.425532,0.769113 -0.829912,1.5499 -1.212578,2.341323 -0.522227,1.080084 -1.003786,2.179493 -1.443535,3.295451 0,0 0,0 -10e-7,0 -0.459191,1.165335 -0.872604,2.348111 -1.23932,3.545052 0,0 0,10e-7 0,10e-7 -0.41335,1.349246 -0.767225,2.715555 -1.060974,4.094141 z m 8.62697,-18.927065 c 0.187626,-0.04505 0.375118,-0.08878 0.562459,-0.131184 0.450503,-0.101973 0.747581,-0.165467 1.198083,-0.26744 0.04422,-0.01008 0.08653,-0.01981 0.127119,-0.02924 0,0 0,0 0,0 0.246081,-0.05719 0.424114,-0.102634 0.553618,-0.144834 0.370981,-0.115428 0.705684,-0.237531 1.006602,-0.372199 0,0 0.0077,-0.0037 0.0077,-0.0037 0.0015,-0.0011 0.003,-0.0023 0.0044,-0.0034 0.300226,-0.153892 0.576017,-0.319844 0.82482,-0.501066 4.18e-4,-4.7e-4 8.37e-4,-9.4e-4 0.0013,-0.0014 7.39e-4,-8.3e-4 0.0015,-0.0017 0.0022,-0.0025 0.265852,-0.200946 0.506958,-0.372502 0.719234,-0.515044 0,0 0,0 0,0 0,0 0,0 0,0 0.106405,-0.07145 0.205956,-0.135873 0.298216,-0.193318 0.0015,-10e-4 0.003,-0.0021 0.0045,-0.0032 0.0016,-0.0012 0.0032,-0.0023 0.0049,-0.0035 0.260137,-0.178545 0.498906,-0.278189 0.71565,-0.310887 0.0023,-2.05e-4 0.0045,-4.09e-4 0.0068,-6.13e-4 0.0027,-7.02e-4 0.0055,-0.0014 0.0082,-0.0021 0.209166,-0.04622 0.431083,-0.02488 0.678509,0.0818 0.002,0.0011 0.0041,0.0023 0.0061,0.0034 0.0015,6.03e-4 0.003,0.0012 0.0044,0.0018 0.230797,0.08397 0.541197,0.273032 0.890465,0.530901 0.05866,0.751017 0.147074,1.470183 0.181278,2.191405 -3.24e-4,3.47e-4 -6.49e-4,6.94e-4 -9.74e-4,10e-4 0.0059,0.12078 0.0041,0.220505 -0.0014,0.291792 -0.0033,0.04297 -0.008,0.0756 -0.01315,0.09631 -0.04234,0.170751 -0.179341,0.245946 -0.307506,0.259093 -0.127119,0.01306 -0.259379,0.01548 -0.399814,-0.0037 -0.15463,-0.02785 -0.305942,-0.06639 -0.454074,-0.117494 -9.12e-4,-1.94e-4 -0.0026,-5.27e-4 -0.0038,-9.84e-4 -0.113332,-0.04871 -0.279845,-0.121873 -0.393176,-0.170579 -0.10614,-0.04594 -0.212428,-0.09164 -0.318863,-0.137106 -0.0093,0.502234 -0.009,1.001347 5.86e-4,1.497007 0.677835,0.131288 1.299853,0.295588 1.968892,0.272165 0.521827,-0.01828 0.982967,-0.103204 1.379536,-0.344569 0,0 0,0 0,0 0.146841,-0.08937 0.284839,-0.200153 0.414456,-0.337131 0.276578,-0.292141 0.357193,-0.633277 0.367589,-1.01217 0.009,-0.327878 -0.01681,-0.667919 -0.05868,-1.007616 -0.07185,-0.583031 -0.190952,-1.167004 -0.265857,-1.688407 -0.09178,-0.638941 0.05099,-1.068367 0.224853,-1.30008 0.223709,-0.298059 0.518593,-0.326447 0.760868,-0.313242 0.499858,0.02726 0.95362,0.32272 1.304881,0.568374 0.50292,0.351717 1.007334,0.842285 1.514231,1.473021 0.505643,0.629116 0.972146,1.271049 1.431158,1.870556 0.05763,0.01215 0.115195,0.02442 0.172685,0.03683 0.636239,0.137294 1.26377,0.290302 1.881897,0.458514 l -6.782268,-8.931283 c 0.732555,-0.55629 1.481477,-1.090987 2.245589,-1.603216 l 3.318836,4.950846 c 0.266707,0.05429 0.531899,0.11122 0.795527,0.170747 0.527021,0.118997 1.047815,0.248364 1.562006,0.387794 -0.0123,-0.103335 -0.02429,-0.206773 -0.03597,-0.310312 -0.139769,-1.41318 0.141337,-2.738358 0.797003,-3.930165 0,0 0,0 0,0 0.249022,-0.45265 0.550896,-0.883511 0.901004,-1.288646 0.480508,2.338518 1.894697,4.166524 3.207112,5.953899 0.02013,0.02798 0.04023,0.05596 0.06033,0.08396 0.415034,0.02159 0.827014,0.05077 1.235637,0.08739 -0.08056,-0.120884 -0.161396,-0.241618 -0.242506,-0.362202 -1.486077,-1.985834 -2.247403,-4.053568 -2.271122,-6.3124 0,0 0,0 0,0 -0.0052,-0.495097 0.02549,-0.994736 0.09112,-1.497949 0.0082,-0.06113 0.01656,-0.122275 0.02502,-0.183431 -0.300786,-0.06581 -0.603531,-0.128456 -0.908173,-0.187885 -0.556085,-0.108478 -1.118466,-0.206241 -1.686729,-0.292968 -0.03332,0.03177 -0.06658,0.06358 -0.09977,0.09543 -0.540459,0.534171 -1.027263,1.111121 -1.452242,1.718759 -0.752892,1.076485 -1.301053,2.233809 -1.620648,3.405542 l -2.138396,-3.476322 c 0.937677,-0.576794 1.895722,-1.120486 2.871988,-1.629749 1.103161,-0.575452 2.229297,-1.106766 3.375147,-1.592284 v 0 c 0.814901,-0.345287 1.639622,-0.667335 2.47294,-0.965643 -0.704698,-0.265183 -1.422754,-0.514301 -2.153456,-0.746567 -0.297773,0.119195 -0.59435,0.241371 -0.889677,0.366507 -1.181805,0.500758 -2.343191,1.048702 -3.480895,1.642174 0,0 -10e-7,0 -10e-7,0 -1.363648,0.711342 -2.692701,1.487734 -3.981824,2.325881 -1.42895,0.929068 -2.808156,1.933516 -4.130786,3.008273 0,0 -10e-7,0 -10e-7,0 -1.092134,0.887463 -2.145285,1.822522 -3.155845,2.802027 0,0 -10e-7,1e-6 -10e-7,1e-6 -0.62592,0.60669 -1.23539,1.230329 -1.827595,1.870119 -0.756305,0.817075 -1.484277,1.660333 -2.18231,2.528012 -0.316951,0.393982 -0.627686,0.792955 -0.932065,1.196742 6.7e-4,4.94e-4 0.0013,9.88e-4 0.002,0.0015 z m -1.104168,1.913225 c -0.0018,0.0026 -0.0036,0.0053 -0.0054,0.0079 0,0 0,0 0,0 -0.446935,0.657434 -0.603413,1.425121 -0.469237,2.21699 1.2e-4,8.55e-4 -3.3e-5,0.0016 -4.3e-5,0.0023 1.53e-4,8.67e-4 2.65e-4,0.0011 1.98e-4,0.0019 0.05917,0.402184 0.187489,0.748149 0.381435,1.030312 0.190442,0.27707 0.426842,0.498304 0.703106,0.662416 0.623815,0.370573 1.328343,0.437679 2.062062,0.230941 0.691988,-0.194989 1.259112,-0.585953 1.685773,-1.160329 0,0 0,0 0,0 0.02507,-0.03375 0.04967,-0.06815 0.07379,-0.103194 0.412971,-0.599918 0.573444,-1.267369 0.467899,-1.967448 5.2e-5,-7.09e-4 1.05e-4,-0.0014 1.57e-4,-0.0021 -5.63e-4,-0.0012 -0.0011,-0.0023 -0.0017,-0.0035 -0.126349,-0.723161 -0.447523,-1.318133 -0.978988,-1.73408 -0.551194,-0.431387 -1.228435,-0.592966 -1.996814,-0.447755 -0.770863,0.12674 -1.441565,0.562162 -1.922813,1.265439 1.82e-4,1.08e-4 3.64e-4,2.15e-4 5.46e-4,3.23e-4 z M 112.43013,16.829877 c -0.18193,-0.03931 -0.36372,-0.06162 -0.54421,-0.0673 -0.59331,-0.01865 -1.17,0.142383 -1.6953,0.468199 -7.4e-4,4.34e-4 -10e-4,5.72e-4 -0.002,8.14e-4 -7.4e-4,4.7e-4 -9.5e-4,6.75e-4 -0.002,8.73e-4 -0.0156,0.0092 -0.031,0.01848 -0.0463,0.02784 0,0 0,0 0,0 -0.32782,0.201149 -0.58398,0.441093 -0.7636,0.71452 -0.18459,0.280991 -0.30013,0.583448 -0.34774,0.901232 -0.10349,0.690843 0.0819,1.344895 0.51378,1.929021 0,0 0,0 0,0 0.0167,0.0226 0.0338,0.0451 0.0513,0.0675 0.34107,0.437643 0.76253,0.762539 1.25498,0.969598 0.18319,0.07702 0.37642,0.137867 0.57957,0.182352 0.71145,0.15579 1.39006,0.05231 1.99847,-0.309761 6.8e-4,-2.2e-4 10e-4,-4.39e-4 0.002,-6.59e-4 8.8e-4,-9.64e-4 0.002,-0.0019 0.003,-0.0029 0.11788,-0.07393 0.22879,-0.152552 0.33242,-0.235877 0,0 0,0 0,0 0.44314,-0.356308 0.75424,-0.799214 0.90379,-1.32534 0.15054,-0.529597 0.11692,-1.068016 -0.11078,-1.593378 0,0 0,0 0,0 -0.0619,-0.142844 -0.13813,-0.284639 -0.22877,-0.424762 -0.40862,-0.665993 -1.06533,-1.122648 -1.89841,-1.30264 1e-5,2.18e-4 2e-5,4.35e-4 3e-5,6.53e-4 z M 58.351009,47.902145 c 0.164571,-0.459238 0.33636,-0.915935 0.515308,-1.369879 0.422807,-1.072521 0.885452,-2.129282 1.386821,-3.167575 l 2.456782,1.186337 c -0.238829,0.07411 -0.497292,0.145801 -0.703033,0.228257 -0.389415,0.15607 -0.708511,0.361571 -0.948452,0.624299 -0.250932,0.274773 -0.386338,0.642036 -0.403323,1.044361 -0.01502,0.253867 0.07764,0.556323 0.178476,0.859855 0,10e-7 0,10e-7 0,10e-7 0,0 0,0 0,0 0.0076,0.02276 0.0318,0.09513 0.03936,0.117896 -0.394844,-0.0944 -0.794217,-0.184184 -1.184748,-0.113482 -0.384142,0.06033 -0.859186,0.321115 -1.337201,0.589928 2e-6,10e-7 4e-6,10e-7 6e-6,2e-6 z M 69.106017,30.840744 c 0.226045,-0.228319 0.454439,-0.454307 0.685138,-0.67792 0.946911,-0.917824 1.932451,-1.795455 2.953363,-2.63005 l 1.726747,2.112232 c -0.247754,-0.03361 -0.512323,-0.07772 -0.733595,-0.08983 -0.418823,-0.02292 -0.794411,0.02829 -1.122744,0.165065 -0.34339,0.143054 -0.621455,0.418998 -0.806688,0.776424 -0.136582,0.252982 -0.174444,0.619606 -0.215397,0.978102 -0.317967,-0.252401 -0.642029,-0.502487 -1.025819,-0.60345 -0.03705,-0.01068 -0.07585,-0.01995 -0.116238,-0.02796 -0.36636,-0.07264 -0.852698,-0.04 -1.344771,-0.0026 z m -4.7626,6.051277 c 0.136452,-0.193184 0.250626,-0.264563 0.378411,-0.283445 0.128375,-0.01896 0.301792,0.02574 0.515864,0.181194 0.372924,0.27081 0.567565,0.647745 0.618648,1.175521 -3.9e-5,7.24e-4 -7.9e-5,0.0014 -1.18e-4,0.0022 l 9.45e-4,6.67e-4 c 0.0318,0.281993 0.0182,0.53754 -0.04147,0.776541 -0.05419,0.217053 -0.146309,0.420193 -0.276671,0.617117 -0.09934,0.15006 -0.175717,0.198589 -0.280322,0.212592 -0.104069,0.014 -0.263447,-0.02282 -0.466463,-0.154213 -0.182913,-0.118382 -0.337988,-0.268646 -0.46499,-0.454643 l -9.69e-4,-6.31e-4 c -0.130283,-0.205773 -0.219879,-0.430351 -0.268521,-0.676698 2.9e-5,-7.39e-4 5.7e-5,-0.0015 8.6e-5,-0.0022 -0.04669,-0.270022 -0.04609,-0.516126 -3e-5,-0.743685 0.04743,-0.234335 0.143109,-0.449237 0.285267,-0.650499 1.12e-4,7.6e-5 2.23e-4,1.53e-4 3.35e-4,2.29e-4 z M 112.78956,18.427857 c 0.23045,0.05339 0.33969,0.132162 0.40545,0.243357 0.0661,0.111713 0.0902,0.289171 0.0271,0.546098 -0.10993,0.447582 -0.38547,0.770146 -0.8549,1.016767 -6.9e-4,2.37e-4 -0.001,4.74e-4 -0.002,7.11e-4 l -2.6e-4,0.0011 c -0.41971,0.229037 -0.81821,0.310237 -1.24075,0.259147 -0.0562,-0.0068 -0.11278,-0.01592 -0.1699,-0.02735 -0.17647,-0.0353 -0.25026,-0.08769 -0.30274,-0.179256 -0.0523,-0.09107 -0.0784,-0.252549 -0.0334,-0.490154 0.0405,-0.214079 0.12106,-0.414426 0.24532,-0.602273 l 2.2e-4,-0.0011 c 0.14132,-0.198357 0.31543,-0.366143 0.52515,-0.50423 7e-4,-2.53e-4 10e-4,-5.06e-4 0.002,-7.59e-4 0.0386,-0.02415 0.0772,-0.04683 0.11558,-0.06807 0.43048,-0.237973 0.84887,-0.295008 1.28322,-0.194373 -3e-5,1.32e-4 -7e-5,2.63e-4 -10e-5,3.95e-4 z m -11.84826,1.124493 0.1445,4.764824 c -0.48157,-0.66037 -1.07075,-1.234328 -1.774403,-1.702756 -0.604034,-0.402111 -1.292292,-0.726137 -2.063186,-0.956357 0.618996,-0.487364 1.241603,-0.924172 1.846423,-1.261616 0.01828,-0.01003 0.03656,-0.02001 0.05485,-0.02992 0,0 0,0 0,0 0.594266,-0.322272 1.192386,-0.583522 1.791816,-0.81417 z m -35.275874,22.051256 2.46756,1.487605 c 0.03655,-0.02035 0.07311,-0.04062 0.10969,-0.06082 0.380129,-0.208093 0.816479,-0.413266 1.305617,-0.608612 6.16e-4,-2.4e-4 0.0012,-4.81e-4 0.0018,-7.21e-4 2.41e-4,-3.71e-4 4.82e-4,-7.42e-4 7.23e-4,-0.0011 0.339656,-0.143191 0.692069,-0.276047 1.056271,-0.397957 0,0 10e-7,0 10e-7,0 0.14966,-0.0501 0.301294,-0.09834 0.454834,-0.144698 6.16e-4,-2.09e-4 0.0012,-4.18e-4 0.0018,-6.26e-4 3e-4,-4.3e-4 6e-4,-8.59e-4 9e-4,-0.0013 0.515317,-0.165477 1.046935,-0.298808 1.593022,-0.399327 0.546572,-0.100598 1.074033,-0.164144 1.58011,-0.195106 0.05737,-0.0035 0.114698,-0.0069 0.171991,-0.01009 0.107645,-0.006 0.215157,-0.01158 0.322534,-0.0166 l -0.4041,-0.329137 -0.695747,-0.566681 c -0.02222,-0.0021 -0.04446,-0.0041 -0.06669,-0.0061 -0.108217,-0.0103 -0.218694,-0.01933 -0.331413,-0.02701 0,0 0,-10e-7 0,-10e-7 -0.966161,-0.0659 -2.112302,-0.03405 -3.419086,0.147282 -0.413055,0.05493 -0.808628,0.121004 -1.185854,0.196738 -0.968676,0.194477 -1.818788,0.453135 -2.540125,0.753365 -0.141369,0.05936 -0.282683,0.119678 -0.423929,0.180959 z m 43.260784,-20.172055 -0.44534,2.846664 c 0.0327,0.02616 0.0652,0.05235 0.0978,0.07859 0.10493,0.08529 0.21161,0.175727 0.31983,0.271285 0.23874,0.21081 0.48521,0.446785 0.73685,0.70771 4.5e-4,4.79e-4 9.1e-4,9.58e-4 10e-4,0.0014 4.4e-4,8.3e-5 8.7e-4,1.66e-4 0.001,2.49e-4 0.13824,0.137996 0.27515,0.280414 0.41059,0.427155 0.22514,0.243943 0.44617,0.499768 0.66245,0.76701 4.2e-4,4.92e-4 8.5e-4,9.83e-4 10e-4,0.0015 5.1e-4,1.16e-4 0.001,2.31e-4 0.002,3.47e-4 0.34774,0.414627 0.67182,0.856485 0.97087,1.324127 0.0831,0.130007 0.16305,0.259716 0.23982,0.389041 0.19963,0.336328 0.3781,0.670211 0.53665,1.000253 0.0716,0.149099 0.14201,0.298369 0.21115,0.447796 l 0.15226,-0.498443 0.26215,-0.858178 c -0.006,-0.02132 -0.0127,-0.04264 -0.0191,-0.06396 -0.16388,-0.545477 -0.38435,-1.137379 -0.67003,-1.768696 0,0 0,0 0,0 -0.23739,-0.524566 -0.5212,-1.079291 -0.85681,-1.658629 -0.32283,-0.56463 -0.65486,-1.079688 -0.98968,-1.54434 0,0 0,0 0,0 -0.39404,-0.546799 -0.7928,-1.025015 -1.18738,-1.434409 -0.0367,-0.03803 -0.0733,-0.07546 -0.10986,-0.112316 -0.10836,-0.108473 -0.21758,-0.216533 -0.32767,-0.324168 z" /><g
           id="g16925"
           transform="translate(-0.243986)"><g
             id="g16911"><path
               id="path14526"
               style="fill:#e6c75b;fill-rule:evenodd;stroke-width:0.123519;stop-color:#000000"
               d="m 55.893837,60.02517 3.025745,-0.20411 1.037498,-2.849198 1.128542,2.814545 3.030469,0.106002 -2.327556,1.943641 0.834909,2.915154 -2.567315,-1.613641 -2.514052,1.695501 0.741068,-2.940248 z" /><path
               id="path16895"
               style="fill:#e6c75b;fill-rule:evenodd;stroke-width:0.123519;stop-color:#000000"
               d="m 55.629249,70.674646 3.025745,-0.204109 1.037498,-2.849191 1.128543,2.814537 3.030468,0.106002 -2.327556,1.943642 0.83491,2.915154 -2.567316,-1.613642 -2.514052,1.695502 0.741069,-2.940249 z" /></g><g
             id="g16917"
             transform="matrix(-1,0,0,1,205.07346,0)"><path
               id="path16913"
               style="fill:#e6c75b;fill-rule:evenodd;stroke-width:0.123519;stop-color:#000000"
               d="m 55.893837,60.02517 3.025745,-0.20411 1.037498,-2.849198 1.128542,2.814545 3.030469,0.106002 -2.327556,1.943641 0.834909,2.915154 -2.567315,-1.613641 -2.514052,1.695501 0.741068,-2.940248 z" /><path
               id="path16915"
               style="fill:#e6c75b;fill-rule:evenodd;stroke-width:0.123519;stop-color:#000000"
               d="m 55.629249,70.674646 3.025745,-0.204109 1.037498,-2.849191 1.128543,2.814537 3.030468,0.106002 -2.327556,1.943642 0.83491,2.915154 -2.567316,-1.613642 -2.514052,1.695502 0.741069,-2.940249 z" /></g></g></g><g
         id="g12247"><g
           id="g11817"><g
             id="g11752"><g
               id="g7354"><path
                 id="path6168"
                 style="fill:#414141;fill-opacity:1;fill-rule:evenodd;stroke-width:0.312041;stop-color:#000000"
                 d="m 77.786466,75.771602 c -0.0474,0.0017 -0.09471,0.0039 -0.14211,0.0057 v 19.638077 h 0.14211 3.178101 V 75.771602 Z" /><path
                 id="path6170"
                 style="fill:#000000;fill-opacity:1;fill-rule:evenodd;stroke-width:0.268576;stop-color:#000000"
                 d="m 79.740863,78.490815 v 9.190653 h -1.954314 v -9.190653 z m 0,10.212297 v 5.339725 h -1.954314 v -5.339725 z" /></g><g
               id="g7304"
               transform="translate(0,1.5e-5)"><path
                 id="path7280"
                 style="fill:#ebebeb;fill-opacity:1;fill-rule:evenodd;stroke-width:0.260539;stop-color:#000000"
                 d="m 88.628698,73.478202 c -0.04417,0.0028 -0.08818,0.0062 -0.132291,0.0093 v 21.92786 h 0.132291 0.12144 v -21.93716 z" /><g
                 id="g6194"
                 transform="matrix(-0.97797372,0,0,1,201.42672,-1e-6)"><path
                   id="path6188"
                   style="fill:url(#linearGradient6210);fill-opacity:1;fill-rule:evenodd;stroke-width:0.263457;stop-color:#000000"
                   d="m 115.33869,73.478432 c 3.17332,0.199823 6.19947,0.97613 9.08761,2.293056 v 19.643877 h -9.08761 z" /><path
                   id="path6190"
                   style="fill:#000000;fill-opacity:1;stroke:none;stroke-width:0.0529167;stroke-linecap:round;stroke-linejoin:round;stroke-opacity:1;paint-order:stroke fill markers"
                   d="m 118.26875,77.622135 -1.47691,10.131681 h 2.95382 z m -1.47691,13.569714 v 4.223515 h 2.95382 v -4.223515 z" /><path
                   id="path6192"
                   style="fill:#000000;fill-opacity:1;fill-rule:evenodd;stroke-width:0.25916;stop-color:#000000"
                   d="m 115.33868,85.066624 h 1.23719 v 5.87495 h -1.23719 z" /></g></g><g
               id="g11507"><path
                 id="path11444"
                 style="fill:#ebebeb;fill-opacity:1;fill-rule:evenodd;stroke-width:0.174703;stop-color:#000000"
                 d="m 65.250281,77.99834 c -0.101176,-3.41e-4 -0.20224,4.4e-5 -0.303341,0.001 v 17.415991 h 0.303341 0.302823 V 78.000923 c -0.100924,-9.85e-4 -0.201819,-0.0029 -0.302823,-0.0026 z" /><g
                 id="g8461"
                 transform="translate(0,1.5943781e-5)"><path
                   id="rect7203"
                   style="fill:#626262;fill-rule:evenodd;stroke-width:1.29051;stop-color:#000000"
                   d="m 68.95359,78.424309 h 0.734902 V 95.415361 H 68.95359 Z" /><g
                   id="g8451"><g
                     id="g6180"
                     transform="matrix(-0.97797372,0,0,1,201.42672,-1e-6)"><g
                       id="g6176"
                       transform="matrix(0.67733797,0,0,0.64409387,65.28602,33.958913)"><path
                         id="path6172"
                         style="opacity:1;fill:url(#linearGradient6204);fill-opacity:1;fill-rule:evenodd;stroke-width:0.267461;stop-color:#000000;stop-opacity:1"
                         d="m 109.18868,68.374121 c -2.06079,-0.0072 -4.11092,0.169091 -6.15001,0.661458 v 26.379785 h 6.15001 z" /><path
                         id="path6174"
                         style="opacity:1;fill:url(#linearGradient6206);fill-opacity:1;fill-rule:evenodd;stroke:none;stroke-width:0.267461;stroke-opacity:1;stop-color:#000000;stop-opacity:1"
                         d="m 109.18868,68.374121 c 2.06079,-0.0072 4.11092,0.169091 6.15001,0.661458 v 26.379785 h -6.15001 z" /></g><path
                       id="path6178"
                       style="fill:#000000;fill-opacity:1;fill-rule:evenodd;stroke-width:0.347172;stop-color:#000000"
                       d="m 135.82539,84.701067 4.27671,8.060458 h -4.27671 z" /></g></g></g></g><g
               id="g6186"
               transform="matrix(-0.97797372,0,0,1,201.42672,1.5e-5)"><path
                 id="path6182"
                 style="fill:url(#linearGradient6208);fill-rule:evenodd;stroke-width:0.270605;stop-color:#000000"
                 d="m 126.42468,75.771492 c 2.88445,0.101362 5.76889,0.342974 8.65334,0.724969 v 18.918902 h -8.65334 z" /><path
                 id="path6184"
                 style="fill:#000000;fill-opacity:1;stroke:none;stroke-width:0.0529167;stroke-linecap:round;stroke-linejoin:round;stroke-opacity:1;paint-order:stroke fill markers"
                 d="m 132.45393,79.100598 -1.27847,9.023738 h 2.55695 z m -1.27847,12.041642 v 4.273124 h 2.55695 V 91.14224 Z" /></g></g><g
             id="g11706"><g
               id="g11574"><path
                 id="rect7274"
                 style="fill:#626262;fill-rule:evenodd;stroke-width:1.29051;stop-color:#000000"
                 d="m 134.89702,78.424323 h 0.7349 v 16.991052 h -0.7349 z" /><g
                 id="g11564"><path
                   id="path11495"
                   style="fill:#ebebeb;fill-opacity:1;fill-rule:evenodd;stroke-width:0.174703;stop-color:#000000"
                   d="m 139.33515,77.998388 c 0.10118,-3.4e-4 0.20224,4e-5 0.30334,10e-4 v 17.41599 h -0.30334 -0.30282 v -17.41441 c 0.10092,-9.8e-4 0.20182,-0.003 0.30282,-0.003 z" /><g
                   id="g8611"
                   transform="translate(0,1.4e-5)"><g
                     id="g6028"
                     transform="matrix(0.97797372,0,0,1,3.1587727,0)"><g
                       id="g3165"
                       transform="matrix(0.67733797,0,0,0.64409387,65.28602,33.958913)"><path
                         id="path3161"
                         style="opacity:1;fill:url(#linearGradient3167);fill-opacity:1;fill-rule:evenodd;stroke-width:0.267461;stop-color:#000000;stop-opacity:1"
                         d="m 109.18868,68.374121 c -2.06079,-0.0072 -4.11092,0.169091 -6.15001,0.661458 v 26.379785 h 6.15001 z" /><path
                         id="path3163"
                         style="opacity:1;fill:url(#linearGradient3169);fill-opacity:1;fill-rule:evenodd;stroke:none;stroke-width:0.267461;stroke-opacity:1;stop-color:#000000;stop-opacity:1"
                         d="m 109.18868,68.374121 c 2.06079,-0.0072 4.11092,0.169091 6.15001,0.661458 v 26.379785 h -6.15001 z" /></g></g></g></g></g><path
               id="rect1278"
               style="fill:#414141;fill-opacity:1;fill-rule:evenodd;stroke-width:0.307131;stop-color:#000000"
               d="m 123.7201,75.771616 v 19.643762 h 3.07888 0.14211 V 75.777301 c -0.0474,-0.0018 -0.0947,-0.004 -0.14211,-0.0057 z" /><g
               id="g7332"
               transform="translate(0,1.3056219e-5)"><path
                 id="rect7306"
                 style="opacity:1;fill:#ebebeb;fill-opacity:1;fill-rule:evenodd;stroke-width:0.0473456;stop-color:#000000;stop-opacity:1"
                 d="m 115.86063,73.478202 v 21.937162 h 0.0961 0.0687 V 73.482853 c -0.0229,-0.0015 -0.0458,-0.0032 -0.0687,-0.0047 z" /><g
                 id="g6022"
                 transform="matrix(0.97797372,0,0,1,3.1587727,0)"><path
                   id="rect1267"
                   style="fill:url(#linearGradient1276);fill-opacity:1;fill-rule:evenodd;stroke-width:0.263457;stop-color:#000000"
                   d="m 115.33869,73.478432 c 3.17332,0.199823 6.19947,0.97613 9.08761,2.293056 v 19.643877 h -9.08761 z" /><path
                   id="path3246"
                   style="fill:#000000;fill-opacity:1;stroke:none;stroke-width:0.0529167;stroke-linecap:round;stroke-linejoin:round;stroke-opacity:1;paint-order:stroke fill markers"
                   d="m 117.72767,77.622135 -1.47691,10.131681 h 2.95382 z m -1.47691,13.569714 v 4.223515 h 2.95382 v -4.223515 z" /></g></g><path
               id="rect3487"
               style="fill:#000000;fill-opacity:1;fill-rule:evenodd;stroke-width:0.268576;stop-color:#000000"
               d="m 124.84463,79.863356 v 9.190653 h 1.95431 v -9.190653 z m 0,10.212297 v 5.339725 h 1.95431 v -5.339725 z" /><g
               id="g6017"
               transform="matrix(0.97797372,0,0,1,3.1587727,1.4056219e-5)"><path
                 id="rect2039"
                 style="fill:url(#linearGradient2047);fill-rule:evenodd;stroke-width:0.270605;stop-color:#000000"
                 d="m 126.42468,75.771492 c 2.88445,0.101362 5.76889,0.342974 8.65334,0.724969 v 18.918902 h -8.65334 z" /><path
                 id="path3499"
                 style="fill:#000000;fill-opacity:1;stroke:none;stroke-width:0.0529167;stroke-linecap:round;stroke-linejoin:round;stroke-opacity:1;paint-order:stroke fill markers"
                 d="m 132.45393,79.100598 -1.27847,9.023738 h 2.55695 z m -1.27847,12.041642 v 4.273124 h 2.55695 V 91.14224 Z" /></g></g><g
             id="g11417"><g
               id="g11397"><path
                 id="path11371"
                 style="fill:#ebebeb;fill-opacity:1;fill-rule:evenodd;stroke-width:0.218945;stop-color:#000000"
                 d="m 102.29298,66.959737 c -0.12673,-3.6e-5 -0.25359,10e-4 -0.38034,0.0015 v 7.021794 h 0.38034 0.38034 v -7.021794 c -0.12675,-5.41e-4 -0.25361,-0.0016 -0.38034,-0.0015 z" /><g
                 id="g6481"
                 transform="translate(0,0.0831738)"><path
                   id="rect6457"
                   style="opacity:1;fill:url(#linearGradient6473);fill-opacity:1;fill-rule:evenodd;stroke-width:0.218945;stop-color:#000000;stop-opacity:1"
                   d="m 102.29298,66.876538 c -4.20691,-0.0012 -8.424001,0.315787 -12.65194,0.959114 v 6.06423 h 12.65194 z" /><path
                   id="path6475"
                   style="opacity:1;fill:url(#linearGradient6477);fill-opacity:1;fill-rule:evenodd;stroke-width:0.218945;stop-color:#000000;stop-opacity:1"
                   d="m 102.29298,66.876538 c 4.20691,-0.0012 8.424,0.315787 12.65194,0.959114 v 6.06423 h -12.65194 z" /></g></g><g
               id="g6221"
               transform="matrix(1.9559533,0,0,1,-95.975793,1.5e-5)"><path
                 id="rect3616"
                 style="font-variation-settings:normal;opacity:1;fill:#797979;fill-opacity:1;fill-rule:evenodd;stroke-width:0.389263;stroke-linecap:butt;stroke-linejoin:miter;stroke-miterlimit:4;stroke-dasharray:none;stroke-dashoffset:0;stroke-opacity:1;stop-color:#000000;stop-opacity:1"
                 d="m 99.69474,69.854134 v 25.56123 h 1.67196 1.67197 v -25.56123 h -1.67197 z" /><path
                 id="rect6216"
                 style="opacity:1;fill-rule:evenodd;stroke-width:0.264583;stop-color:#000000;stop-opacity:1"
                 d="m 99.69474,89.048828 h 3.34393 v 6.366536 h -3.34393 z" /></g><g
               id="g7021"
               transform="translate(0,1.5e-5)"><path
                 style="font-variation-settings:normal;fill:#ebebeb;fill-opacity:1;fill-rule:evenodd;stroke-width:0.264583;stroke-linecap:butt;stroke-linejoin:miter;stroke-miterlimit:4;stroke-dasharray:none;stroke-dashoffset:0;stroke-opacity:1;stop-color:#000000"
                 d="m 94.312589,68.375154 v 27.04021 h 0.330729 0.33073 v -27.04021 c -0.110217,-7.26e-4 -0.220448,-0.0014 -0.33073,-10e-4 -0.110281,-3.94e-4 -0.22051,3.07e-4 -0.330729,10e-4 z"
                 id="path6989" /><g
                 id="g6200"
                 transform="matrix(0.97797372,0,0,1,-12.140599,-1e-6)"><path
                   id="path6196"
                   style="fill:url(#linearGradient6212);fill-opacity:1;fill-rule:evenodd;stroke-width:0.267461;stop-color:#000000"
                   d="m 109.18868,68.374121 c -2.06079,-0.0072 -4.11092,0.169091 -6.15001,0.661458 v 26.379785 h 6.15001 z" /><path
                   id="path6198"
                   style="fill:url(#linearGradient6214);fill-opacity:1;fill-rule:evenodd;stroke:none;stroke-width:0.267461;stroke-opacity:1;stop-color:#000000"
                   d="m 109.18868,68.374121 c 2.06079,-0.0072 4.11092,0.169091 6.15001,0.661458 v 26.379785 h -6.15001 z" /></g></g><g
               id="g7043"
               transform="translate(0,1.5e-5)"><path
                 style="font-variation-settings:normal;fill:#ebebeb;fill-opacity:1;fill-rule:evenodd;stroke-width:0.264583;stroke-linecap:butt;stroke-linejoin:miter;stroke-miterlimit:4;stroke-dasharray:none;stroke-dashoffset:0;stroke-opacity:1;stop-color:#000000"
                 d="m 109.6117,68.37509 v 27.040214 h 0.33073 0.33073 V 68.37509 c -0.11022,-7.26e-4 -0.22045,-0.0014 -0.33073,-0.001 -0.11028,-3.94e-4 -0.22051,3.07e-4 -0.33073,0.001 z"
                 id="path7015" /><g
                 id="g3242"
                 transform="matrix(-0.97797372,0,0,1,216.72609,0)"><path
                   id="rect414"
                   style="fill:url(#linearGradient1116);fill-opacity:1;fill-rule:evenodd;stroke-width:0.267461;stop-color:#000000"
                   d="m 109.18868,68.374121 c -2.06079,-0.0072 -4.11092,0.169091 -6.15001,0.661458 v 26.379785 h 6.15001 z" /><path
                   id="path1245"
                   style="fill:url(#linearGradient1247);fill-opacity:1;fill-rule:evenodd;stroke:none;stroke-width:0.267461;stroke-opacity:1;stop-color:#000000"
                   d="m 109.18868,68.374121 c 2.06079,-0.0072 4.11092,0.169091 6.15001,0.661458 v 26.379785 h -6.15001 z" /></g></g></g></g><g
           id="g12179"
           transform="matrix(1.0113747,0,0,1,-1.1635534,0)"><path
             id="rect8833"
             style="font-variation-settings:normal;fill:#8d8d8d;fill-opacity:1;fill-rule:evenodd;stroke-width:0.59388;stroke-linecap:butt;stroke-linejoin:miter;stroke-miterlimit:4;stroke-dasharray:none;stroke-dashoffset:0;stroke-opacity:1;stop-color:#000000"
             d="m 62.201402,98.194523 v 1.403015 h 80.182688 v -1.403015 z" /><path
             id="path9177"
             style="font-variation-settings:normal;fill:#a6a6a6;fill-opacity:1;fill-rule:evenodd;stroke-width:0.59388;stroke-linecap:butt;stroke-linejoin:miter;stroke-miterlimit:4;stroke-dasharray:none;stroke-dashoffset:0;stroke-opacity:1;stop-color:#000000"
             d="m 62.201402,96.791508 v 1.403015 h 80.182688 v -1.403015 z" /></g></g></g></g><metadata
     id="metadata17149"><rdf:RDF><cc:Work
         rdf:about=""><dc:title>Sangsad Bangladesh Television - সংসদ বাংলাদেশ টেলিভিশন</dc:title></cc:Work></rdf:RDF></metadata></svg>
