<svg enable-background="new 0 0 300 300" height="316.227766" viewBox="0 0 300 300" width="316.227766" xmlns="http://www.w3.org/2000/svg"><g fill="#fbae3f"><path d="m109.2 256.1-.1-28.2s3.6-.6 2.8-3.6c0 0-.5-1.7-3-1.7h-37.1s-7.2-6.5-3.5-9.9c0 0 13.7-18.1 34.7 1.9 0 0 2.4 2.1 3 .2.2-.7.1-1.5-.4-2.1-2.4-3.2-12.3-15.6-26.8-14.6-.5 0-.9.1-1.3.2-3.5.7-17.6 4-18 15.2 0 .3 0 .6.1.9.4 1.3 1.8 4.9 6.2 8.4l.2 4.9s-4.7-3.6-9.5-4.8c-1-.3-2.1-.4-3.2-.4h-39s-7.8-2-6.3-9.8c0 0 1.6-5.6 7.3-5.7 5.8-.1 5 3.8 5 3.8s-.9-.2-2-.1c-3 .3-4.9 3.4-3.8 6.2.4.9 1.1 1.7 2.4 2.1.5.2 1 .3 1.6.3 1.6 0 5.2-.2 6.9-3.4 0 0 4.6-7-1.5-11.6 0 0-2.9-3-9.4-3.2-2.2-.1-4.4.5-6.3 1.7-1.8 1.2-3.9 3.1-5.1 6.3 0 0-2.7 8.1 2 13.4 0 0 4.4 5.1 8 5.2h41.9c.8 0 1.6.1 2.3.3 1.9.5 5.2 1.8 7.9 5.2.6.8 1 1.8 1 2.9l.7 21.7c.1 1.6.5 3.3 1.5 4.6 1.3 1.8 3.3 3 5.4-2.5 0 0 3.8-8.4-1.1-17.9v-14.4h24.9c.6 0 .9.6.6 1.1-.2.2-.4.5-.8.8-1.4 1.1-13.3 10-16.8 12.6-.8.6-1.3 1.3-1.7 2.2-.7 2.1-1.1 5.7 4.8 6.3 8.1.8 16.3 1.2 20.8 10.9.5 1.1 1.3 2.1 2.3 2.8 1.3.8 3 1.4 4.3 0 .4-.5.7-1.1.8-1.7.4-1.4.4-4.1-2.7-6.5zm-7-6c-5.4-3.8-13.3-5.3-13.3-5.3l13.3-9.9z"/><path d="m179.3 246.8-2.6-.3s2.7-9.6-4-13.6c-.2-.1-.3-.2-.5-.2-1.3-.6-7.3-2.8-10.5 1.8-.2.3-.4.7-.5 1.1-.6 2-1.9 9 6.8 12.9l-6 8.3c-.7 1-1.9 1.6-3.2 1.5-1.2-.1-2.6-.6-3.5-2.4v-28.1h21.4c.3 0 .7-.1.9-.3.9-.6 2.5-2.2.5-4.1-.3-.3-.8-.5-1.3-.5h-4.4s-3-11.8-12.8-15.4-16.6 3.6-16.6 3.6l-3.6 3.7c-.3.3-.5.6-.6 1-.2.9-.3 2.3 1.4 1.7.4-.1.7-.3 1-.6 1.3-1.4 6.3-6.3 13.5-6.2 0 0 9.5.8 10.2 11.6h-10.7s-4.9-5.4-6.5.2h-7.2l-4.3-5.2s-.2-4.6 3.3-7.3c0 0 11-9.8 23.6-2.5 0 0 6.9 3.8 10.1 8.4 0 0 2.8-.2 1.6-3 0 0-7.7-12.6-23.3-14.1 0 0-13.1-2.1-21.7 9.8-.6.8-1 1.8-1.1 2.8-.2 1.5-.1 3.6 1.5 5.1l5 6.7-.2 5s-5.3-4.7-9.7-5.3c-.4-.1-.9 0-1.3.1-1 .4-2.8 1.4-1.4 3.5.6.9 1.6 1.5 2.7 1.6 2.2.2 6.8 1.3 9.7 7.5l.9 24.1c0 .8.4 1.7 1 2.2 1.6 1.4 4.7 3.2 6.7-3.2 0 0 3.6-8-1.9-17.7l-.1-13.5h6.1v28.9c0 .7.3 1.4.8 2 2.6 2.8 11.1 10.8 17.9 3 0 0 6.3-6.5 8.2-10.3.1-.2.3-.4.6-.4 1.4-.1 6.5-.7 5.6-2.9-.3-.6-.9-1-1.5-1zm-8.4-4.4c-.2 3.1-3.7.2-3.7.2-2.1-1.7-1.6-3.9-.9-5.3.5-1 1.7-1.5 2.8-1 2.9 1.3 1.8 6.1 1.8 6.1z"/><path d="m190.2 223.5c-.8.6-2.4 1.9-.8 3.4.5.5 1.2.8 2 .9 2 .2 7.4 1.4 9.8 7.8.1.3.2.6.2.8l.6 22.8c0 .2 0 .5.1.7.5 1.6 2.9 7.6 6.7-.2.1-.1.1-.3.2-.4.5-1.4 2.7-8.9-1.4-16.9-.1-.2-.2-.5-.2-.8l-.3-12.4c0-.6.5-1.2 1.1-1.2h75.6c.5 0 1.1-.1 1.6-.3 2.8-1.1 12.1-5.3 12.2-12 .1-7.9-4.4-11.4-4.4-11.4s-5.2-5.2-13.5-3.3c-6.6 1.5-6.9 7.9-6.7 10.6.1.9.3 1.8.7 2.6.9 1.7 2.9 4.4 7 3.8 5.4-.8 4.9-5.9 4.7-6.7 0-.1 0-.2-.1-.2-.2-.5-1.1-2.2-3.9-2.2-.9 0-1.4-1-1-1.7s1.2-1.3 2.6-1.6c.8-.1 1.6-.1 2.4.1 2 .5 5.8 2.2 6.3 7.5 0 0 .9 8.5-8.6 9.7-.1 0-.1 0-.2 0h-76.4c-.3 0-.6-.1-.8-.4-1.3-1.4-6-6.9-2.8-10.5 0 0 14.2-18.1 35 2.9.5.5 1.3.7 2 .4.5-.3.9-.8.4-1.9-.1-.3-.3-.6-.5-.8-1.8-2.4-13.2-16.7-29.7-13.8-.5.1-.9.2-1.4.4-2.7.9-11.5 4.5-13.9 10.8 0 .1-.1.2-.1.3-.1 1-.3 6 6.5 12.3.3.3.5.7.5 1.1v2.4c0 .9-1.1 1.4-1.8.9-2.2-1.7-6-4.3-8.7-3.9-.4.1-.7.2-1 .4z"/><path d="m230.4 231.5s-8.6 3.4-4.9 12.2c3.7 8.9 13.8 5.9 13.8 5.9s6.8-2.3 8.9-6.3c0 0 2.6 8-6 12.1s-18.6-5.3-18.6-5.3-10.2-9.6-11.3-17.8c0 0-2.3-1.1-2.6 2.2 0 0 3.8 16.1 16.1 24.4 0 0 8 5.9 14.3 4.9 0 0 10.1-2.5 12.5-10.7 0 0 3.4-11.6-5-16.8 0 0-2.3-1.3-6.1 3.8 0 0-8.2 8.3-10.7 2.3 0 0 5.6-1.1 6.5-4.4 0 .1 1.6-7.6-6.9-6.5z"/></g><path d="m239.3 45.5c-88.9-23.9-171.6 0-171.6 0-12.9 60.7 0 132.3 0 132.3 101.2 20.7 169.3 0 169.3 0 14.9-54.9 2.3-132.3 2.3-132.3zm-13.8 121.4s-70.8 28.1-145.6 0c0 0-4.8-9.2-7.8-25.7h162.1c-1.7 8.7-4.5 17.4-8.7 25.7zm9.9-32.5h-164.3c-2.5-19.2-2.1-46 8.8-78.4 0 0 69.7-31 145.6 0 0 0 15.6 38 9.9 78.4z" fill="#006c4e"/><path d="m279.7 50.3h-35.4c4 10.9 3.3 29.6 3.3 29.6h43.5v-18.2zm-15.7 23.6h-4.2l1.6-7.1h-6.4l-1.5 7.1h-4.5l3.6-16.9h4.6l-1.4 6.5h6.4l1.6-6.5h3.9zm15.2 0h-10.7l3.7-16.9 9.1.2s4.5 2 4.6 7.2c0 5.2-6.7 9.5-6.7 9.5zm-.5-13-3.8-.2-2.3 9.9h4.3s6.4-5.9 1.8-9.7z" fill="#f5af40"/><path d="m282.4 50.3h8.7v8.2z" fill="#f5af40"/><path d="m276.9 70.6h-4.3l2.3-9.9 3.8.2c4.6 3.8-1.8 9.7-1.8 9.7z" fill="#f5af40"/><path d="m276.9 70.6h-4.3l2.3-9.9 3.8.2c4.6 3.8-1.8 9.7-1.8 9.7z" fill="#f5af40"/><circle cx="153.2" cy="95.3" fill="#e53143" r="34.7"/></svg>